<svg xmlns="http://www.w3.org/2000/svg" version="1.1" xmlns:xlink="http://www.w3.org/1999/xlink" xmlns:svgjs="http://svgjs.dev/svgjs" width="2000" height="444" viewBox="0 0 2000 444"><g transform="matrix(1,0,0,1,-1.2121212121212466,1.2523455166990516)"><svg viewBox="0 0 396 88" data-background-color="#4db5ff" preserveAspectRatio="xMidYMid meet" height="444" width="2000" xmlns="http://www.w3.org/2000/svg" xmlns:xlink="http://www.w3.org/1999/xlink"><g id="tight-bounds" transform="matrix(1,0,0,1,0.2400000000000091,-0.248212624931341)"><svg viewBox="0 0 395.52 88.49642524986265" height="88.49642524986265" width="395.52"><g><svg viewBox="0 0 395.52 88.49642524986265" height="88.49642524986265" width="395.52"><g><svg viewBox="0 0 539.6899351473232 120.75402003405217" height="88.49642524986265" width="395.52"><g transform="matrix(1,0,0,1,144.1699351473232,35.58000067123169)"><svg viewBox="0 0 395.52 49.59401869158879" height="49.59401869158879" width="395.52"><g id="textblocktransform"><svg viewBox="0 0 395.52 49.59401869158879" height="49.59401869158879" width="395.52" id="textblock"><g><svg viewBox="0 0 395.52 49.59401869158879" height="49.59401869158879" width="395.52"><g transform="matrix(1,0,0,1,0,0)"><svg width="395.52" viewBox="3.1 -35.85 385.16999999999996 48.300000000000004" height="49.59401869158879" data-palette-color="#ffffff"><g class="wordmark-text-0" data-fill-palette-color="primary" id="text-0"><path d="M13.55 0.45L13.55 0.45Q10.45 0.45 8-0.4 5.55-1.25 3.1-2.7L3.1-2.7Q3.4-4.6 3.5-6.55 3.6-8.5 3.6-10L3.6-10Q4.25-10.2 5.15-10.28 6.05-10.35 6.8-10.35L6.8-10.35Q7-7.7 7.73-5.9 8.45-4.1 10.03-3.15 11.6-2.2 14.15-2.2L14.15-2.2Q17.45-2.2 18.88-3.65 20.3-5.1 20.3-7.15L20.3-7.15Q20.3-9.2 19.1-10.55 17.9-11.9 16-12.88 14.1-13.85 12-14.8 9.9-15.75 8-17.03 6.1-18.3 4.9-20.2 3.7-22.1 3.7-25.05L3.7-25.05Q3.7-28 5-30.05 6.3-32.1 8.63-33.18 10.95-34.25 14.1-34.25L14.1-34.25Q15.85-34.25 17.5-33.95 19.15-33.65 20.53-33.15 21.9-32.65 22.75-32.05L22.75-32.05Q22.75-30.5 22.8-28.55 22.85-26.6 23.05-25.3L23.05-25.3Q22.45-25.05 21.53-24.9 20.6-24.75 19.8-24.75L19.8-24.75Q19.3-27.6 18.5-29.1 17.7-30.6 16.57-31.18 15.45-31.75 13.95-31.75L13.95-31.75Q11.45-31.75 10.03-30.55 8.6-29.35 8.6-27.15L8.6-27.15Q8.6-25.05 9.8-23.65 11-22.25 12.9-21.25 14.8-20.25 16.93-19.25 19.05-18.25 20.98-17 22.9-15.75 24.1-13.9 25.3-12.05 25.3-9.25L25.3-9.25Q25.3-6.65 24.05-4.42 22.8-2.2 20.23-0.88 17.65 0.45 13.55 0.45ZM45.15 0.45L45.15 0.45Q44.55 0.2 44.2-0.48 43.85-1.15 43.85-2.5L43.85-2.5Q43.85-3 43.92-3.68 44-4.35 44.15-4.95L44.15-4.95 44.3-4.95Q44.1-4 43.52-3.05 42.95-2.1 42.1-1.35L42.1-1.35Q41.2-0.6 39.85-0.13 38.5 0.35 36.65 0.35L36.65 0.35Q33.45 0.35 31.72-1.07 30-2.5 30-5.05L30-5.05Q30-7 30.92-8.38 31.85-9.75 33.32-10.68 34.8-11.6 36.55-12.15 38.3-12.7 40.02-13.03 41.75-13.35 43.15-13.55L43.15-13.55Q43.15-15.45 43.07-16.55 43-17.65 42.77-18.32 42.55-19 42.1-19.5L42.1-19.5Q41.5-20.2 40.75-20.55 40-20.9 39.1-20.9L39.1-20.9Q37.5-20.9 36.6-19.93 35.7-18.95 35.3-17.63 34.9-16.3 34.8-15.15L34.8-15.15Q34.1-15.15 33.2-15.25 32.3-15.35 31.75-15.55L31.75-15.55Q31.85-16.85 31.82-18.4 31.8-19.95 31.5-21.15L31.5-21.15Q33.6-22.2 36-22.78 38.4-23.35 40.45-23.35L40.45-23.35Q42.6-23.35 44.05-22.8 45.5-22.25 46.3-21.35L46.3-21.35Q47.55-20.15 48-18.18 48.45-16.2 48.45-12.8L48.45-12.8 48.45-7.65Q48.45-6.2 48.67-5.35 48.9-4.5 49.55-4.13 50.2-3.75 51.5-3.7L51.5-3.7Q51.55-3.1 51.47-2.4 51.4-1.7 51.15-1.1L51.15-1.1Q49.75-1.05 48.1-0.65 46.45-0.25 45.15 0.45ZM38.35-2.8L38.35-2.8Q39.45-2.8 40.55-3.53 41.65-4.25 42.4-5.73 43.15-7.2 43.15-9.6L43.15-9.6 43.15-11.35Q41.85-11.15 40.5-10.85 39.15-10.55 38.02-10 36.9-9.45 36.22-8.55 35.55-7.65 35.55-6.15L35.55-6.15Q35.55-4.4 36.4-3.6 37.25-2.8 38.35-2.8ZM64.09-21L58.8-10.6 58.8-15.8Q58.8-17.1 58.57-17.88 58.34-18.65 57.55-19.05 56.75-19.45 55.09-19.5L55.09-19.5Q55.09-20.1 55.2-20.65 55.3-21.2 55.55-21.65L55.55-21.65Q57.45-21.75 59.59-22.25 61.75-22.75 62.9-23.35L62.9-23.35Q63.4-23.15 63.75-22.65 64.09-22.15 64.09-21L64.09-21ZM79.2-14.95L79.2-6.6Q79.2-4.05 79.87-3.15 80.55-2.25 82.05-2.25L82.05-2.25Q82.2-1.75 82.25-1.2 82.3-0.65 82.3 0.15L82.3 0.15Q81.2 0.05 79.7 0.03 78.2 0 76.65 0L76.65 0Q75.59 0 74.42 0.03 73.25 0.05 72.2 0.08 71.15 0.1 70.34 0.15L70.34 0.15Q70.34-0.6 70.4-1.2 70.45-1.8 70.65-2.25L70.65-2.25Q72.3-2.25 73.09-3.2 73.9-4.15 73.9-6.7L73.9-6.7 73.9-13.65Q73.9-17.1 72.7-18.35 71.5-19.6 69.5-19.6L69.5-19.6Q68.25-19.6 67-18.75 65.75-17.9 64.92-16.1 64.09-14.3 64.09-11.35L64.09-11.35 64.09-6.6Q64.09-4.1 64.82-3.18 65.55-2.25 67.34-2.25L67.34-2.25Q67.55-1.75 67.59-1.18 67.65-0.6 67.65 0.15L67.65 0.15Q66.95 0.1 65.9 0.08 64.84 0.05 63.7 0.03 62.55 0 61.45 0L61.45 0Q60.4 0 59.22 0.03 58.05 0.05 56.95 0.08 55.84 0.1 55.09 0.15L55.09 0.15Q55.09-0.6 55.17-1.23 55.25-1.85 55.4-2.25L55.4-2.25Q57.34-2.25 58.07-3.18 58.8-4.1 58.8-6.6L58.8-6.6 58.8-15.8 64.09-21Q64.09-20.4 64.02-19.65 63.95-18.9 63.7-18.05L63.7-18.05Q63.9-18.4 64.09-18.8 64.3-19.2 64.65-19.65L64.65-19.65Q65.55-20.8 67.4-21.95 69.25-23.1 71.8-23.1L71.8-23.1Q73.75-23.1 75.45-22.33 77.15-21.55 78.17-19.78 79.2-18 79.2-14.95L79.2-14.95ZM86.04 12.45L86.04 12.45Q85.59 12.2 85.22 11.75 84.84 11.3 84.74 10.7L84.74 10.7Q86.64 8.6 87.69 6.85 88.74 5.1 89.14 3.23 89.54 1.35 89.54-1.1L89.54-1.1 89.54-15.95Q89.54-17.15 89.32-17.93 89.09-18.7 88.29-19.1 87.49-19.5 85.84-19.5L85.84-19.5Q85.84-20.1 85.94-20.65 86.04-21.2 86.29-21.65L86.29-21.65Q87.34-21.65 88.82-21.9 90.29-22.15 91.64-22.55 92.99-22.95 93.64-23.35L93.64-23.35Q94.14-23.15 94.49-22.65 94.84-22.15 94.84-21.15L94.84-21.15 94.84-2.05Q94.84 0.75 94.07 3.05 93.29 5.35 91.99 7.15 90.69 8.95 89.14 10.28 87.59 11.6 86.04 12.45ZM91.74-28.5L91.74-28.5Q90.29-28.5 89.37-29.38 88.44-30.25 88.44-31.55L88.44-31.55Q88.44-33.05 89.44-33.95 90.44-34.85 91.79-34.85L91.79-34.85Q93.34-34.85 94.24-33.95 95.14-33.05 95.14-31.6L95.14-31.6Q95.14-30.35 94.17-29.43 93.19-28.5 91.74-28.5ZM116.09 0.45L116.09 0.45Q115.49 0.2 115.14-0.48 114.79-1.15 114.79-2.5L114.79-2.5Q114.79-3 114.87-3.68 114.94-4.35 115.09-4.95L115.09-4.95 115.24-4.95Q115.04-4 114.47-3.05 113.89-2.1 113.04-1.35L113.04-1.35Q112.14-0.6 110.79-0.13 109.44 0.35 107.59 0.35L107.59 0.35Q104.39 0.35 102.67-1.07 100.94-2.5 100.94-5.05L100.94-5.05Q100.94-7 101.86-8.38 102.79-9.75 104.27-10.68 105.74-11.6 107.49-12.15 109.24-12.7 110.97-13.03 112.69-13.35 114.09-13.55L114.09-13.55Q114.09-15.45 114.02-16.55 113.94-17.65 113.72-18.32 113.49-19 113.04-19.5L113.04-19.5Q112.44-20.2 111.69-20.55 110.94-20.9 110.04-20.9L110.04-20.9Q108.44-20.9 107.54-19.93 106.64-18.95 106.24-17.63 105.84-16.3 105.74-15.15L105.74-15.15Q105.04-15.15 104.14-15.25 103.24-15.35 102.69-15.55L102.69-15.55Q102.79-16.85 102.77-18.4 102.74-19.95 102.44-21.15L102.44-21.15Q104.54-22.2 106.94-22.78 109.34-23.35 111.39-23.35L111.39-23.35Q113.54-23.35 114.99-22.8 116.44-22.25 117.24-21.35L117.24-21.35Q118.49-20.15 118.94-18.18 119.39-16.2 119.39-12.8L119.39-12.8 119.39-7.65Q119.39-6.2 119.62-5.35 119.84-4.5 120.49-4.13 121.14-3.75 122.44-3.7L122.44-3.7Q122.49-3.1 122.42-2.4 122.34-1.7 122.09-1.1L122.09-1.1Q120.69-1.05 119.04-0.65 117.39-0.25 116.09 0.45ZM109.29-2.8L109.29-2.8Q110.39-2.8 111.49-3.53 112.59-4.25 113.34-5.73 114.09-7.2 114.09-9.6L114.09-9.6 114.09-11.35Q112.79-11.15 111.44-10.85 110.09-10.55 108.97-10 107.84-9.45 107.17-8.55 106.49-7.65 106.49-6.15L106.49-6.15Q106.49-4.4 107.34-3.6 108.19-2.8 109.29-2.8ZM139.94-6.2L143.39-14.9Q144.64-17.95 144.01-19.07 143.39-20.2 141.34-20.6L141.34-20.6Q141.14-21.15 141.04-21.78 140.94-22.4 140.94-23L140.94-23Q142.09-22.95 143.31-22.93 144.54-22.9 145.89-22.9L145.89-22.9Q147.29-22.9 148.54-22.93 149.79-22.95 150.89-23L150.89-23Q150.89-22.45 150.84-21.83 150.79-21.2 150.54-20.6L150.54-20.6Q149.64-20.4 149.04-19.93 148.44-19.45 147.89-18.45 147.34-17.45 146.59-15.65L146.59-15.65 139.24 1.85Q137.84 5.25 136.69 7.35 135.54 9.45 134.54 10.55 133.54 11.65 132.54 12.05 131.54 12.45 130.39 12.45L130.39 12.45Q128.84 12.45 127.86 12 126.89 11.55 126.34 11.05L126.34 11.05Q126.14 10.25 126.19 9.08 126.24 7.9 126.44 7.15L126.44 7.15Q127.29 7.3 128.21 7.43 129.14 7.55 130.09 7.55L130.09 7.55Q131.54 7.55 132.81 6.88 134.09 6.2 135.04 4.7L135.04 4.7Q135.64 3.75 137.01 0.78 138.39-2.2 139.94-6.2L139.94-6.2ZM140.14-4.45L137.34 1.35Q136.09-1.35 134.74-4.35 133.39-7.35 132.14-10.13 130.89-12.9 129.94-14.9L129.94-14.9Q128.89-17.2 128.14-18.35 127.39-19.5 126.74-19.98 126.09-20.45 125.29-20.6L125.29-20.6Q125.14-21.1 125.04-21.73 124.94-22.35 124.94-23L124.94-23Q126.39-22.95 127.94-22.93 129.49-22.9 130.89-22.9L130.89-22.9Q132.34-22.9 134.31-22.93 136.29-22.95 137.84-23L137.84-23Q137.84-22.3 137.76-21.68 137.69-21.05 137.49-20.6L137.49-20.6Q134.89-20.15 134.51-19.1 134.14-18.05 135.49-15.35L135.49-15.35Q136.19-13.9 137.04-11.95 137.89-10 138.71-8.03 139.54-6.05 140.14-4.45L140.14-4.45ZM153.09 7.25L153.09 7.25Q153.09 6.35 153.21 5.68 153.34 5 153.69 4.45L153.69 4.45 177.59 4.45Q177.59 5 177.44 5.85 177.29 6.7 176.99 7.2L176.99 7.2Q174.24 7.15 172.29 7.15 170.34 7.15 168.59 7.15 166.84 7.15 164.74 7.15L164.74 7.15Q162.89 7.15 161.16 7.18 159.44 7.2 157.51 7.2 155.59 7.2 153.09 7.25ZM181.73-33.95L181.73-33.95Q182.73-33.9 184.18-33.85 185.63-33.8 186.93-33.8L186.93-33.8Q188.18-33.8 189.53-33.83 190.88-33.85 192.23-33.88 193.58-33.9 194.78-33.9L194.78-33.9Q198.08-33.9 200.58-33.25 203.08-32.6 204.51-31 205.93-29.4 205.93-26.55L205.93-26.55Q205.93-23.4 203.98-21.15 202.03-18.9 198.58-18.35L198.58-18.35Q201.38-18.2 203.58-17.32 205.78-16.45 207.08-14.65 208.38-12.85 208.38-9.85L208.38-9.85Q208.38-7.1 207.11-4.85 205.83-2.6 203.06-1.3 200.28 0 195.78 0L195.78 0Q194.28 0 192.31 0 190.33 0 188.31 0.03 186.28 0.05 184.53 0.08 182.78 0.1 181.68 0.15L181.68 0.15Q181.68-0.6 181.73-1.23 181.78-1.85 181.93-2.25L181.93-2.25Q183.28-2.35 184.03-2.78 184.78-3.2 185.11-4.25 185.43-5.3 185.43-7.3L185.43-7.3 185.43-27Q185.43-28.8 185.13-29.73 184.83-30.65 184.08-31.05 183.33-31.45 181.98-31.55L181.98-31.55Q181.83-32 181.78-32.65 181.73-33.3 181.73-33.95ZM190.23-31L190.93-32.05 190.93-7.2Q190.93-5.15 191.33-4.1 191.73-3.05 192.73-2.73 193.73-2.4 195.43-2.4L195.43-2.4Q198.83-2.4 200.48-4.2 202.13-6 202.13-9.15L202.13-9.15Q202.13-11.4 201.28-12.85 200.43-14.3 198.96-15.05 197.48-15.8 195.71-16.1 193.93-16.4 192.13-16.4L192.13-16.4 190.13-16.4 190.13-18.8 192.53-18.8Q195.53-18.8 197.16-19.68 198.78-20.55 199.43-21.98 200.08-23.4 200.08-25.05L200.08-25.05Q200.08-27.5 198.98-28.9 197.88-30.3 196.26-30.88 194.63-31.45 193.03-31.45L193.03-31.45Q192.33-31.45 191.71-31.35 191.08-31.25 190.23-31L190.23-31ZM236.68-14.95L236.68-6.6Q236.68-4.05 237.38-3.15 238.08-2.25 239.53-2.25L239.53-2.25Q239.68-1.75 239.75-1.2 239.83-0.65 239.83 0.15L239.83 0.15Q238.73 0.05 237.23 0.03 235.73 0 234.13 0L234.13 0Q233.13 0 231.93 0.03 230.73 0.05 229.68 0.08 228.63 0.1 227.83 0.15L227.83 0.15Q227.83-0.6 227.88-1.2 227.93-1.8 228.13-2.25L228.13-2.25Q229.83-2.25 230.63-3.2 231.43-4.15 231.43-6.7L231.43-6.7 231.43-13.65Q231.43-17.1 230.21-18.35 228.98-19.6 227.03-19.6L227.03-19.6Q225.73-19.6 224.48-18.75 223.23-17.9 222.41-16.1 221.58-14.3 221.58-11.35L221.58-11.35 221.58-6.6Q221.58-4.1 222.31-3.18 223.03-2.25 224.88-2.25L224.88-2.25Q225.03-1.75 225.11-1.18 225.18-0.6 225.18 0.15L225.18 0.15Q224.43 0.1 223.38 0.08 222.33 0.05 221.18 0.03 220.03 0 218.93 0L218.93 0Q217.93 0 216.73 0.03 215.53 0.05 214.46 0.08 213.38 0.1 212.63 0.15L212.63 0.15Q212.63-0.6 212.68-1.23 212.73-1.85 212.88-2.25L212.88-2.25Q214.83-2.25 215.58-3.18 216.33-4.1 216.33-6.6L216.33-6.6 216.33-15.8 221.58-21Q221.58-20.4 221.5-19.65 221.43-18.9 221.18-18.05L221.18-18.05Q221.38-18.4 221.58-18.8 221.78-19.2 222.13-19.65L222.13-19.65Q223.03-20.8 224.88-21.95 226.73-23.1 229.28-23.1L229.28-23.1Q231.28-23.1 232.96-22.33 234.63-21.55 235.66-19.78 236.68-18 236.68-14.95L236.68-14.95ZM216.33-26.9L216.33-28.45Q216.33-29.65 216.08-30.43 215.83-31.2 215.03-31.6 214.23-32 212.58-32L212.58-32Q212.58-32.6 212.68-33.15 212.78-33.7 213.03-34.15L213.03-34.15Q214.08-34.15 215.58-34.4 217.08-34.65 218.41-35.05 219.73-35.45 220.38-35.85L220.38-35.85Q220.88-35.65 221.23-35.15 221.58-34.65 221.58-33.65L221.58-33.65 221.58-26.9 216.33-26.9ZM216.33-14.9L216.33-28.7 221.58-28.7 221.58-21 216.33-14.9ZM259.03 0.45L259.03 0.45Q258.43 0.2 258.08-0.48 257.73-1.15 257.73-2.5L257.73-2.5Q257.73-3 257.8-3.68 257.88-4.35 258.03-4.95L258.03-4.95 258.18-4.95Q257.98-4 257.4-3.05 256.83-2.1 255.98-1.35L255.98-1.35Q255.08-0.6 253.73-0.13 252.38 0.35 250.53 0.35L250.53 0.35Q247.33 0.35 245.6-1.07 243.88-2.5 243.88-5.05L243.88-5.05Q243.88-7 244.8-8.38 245.73-9.75 247.2-10.68 248.68-11.6 250.43-12.15 252.18-12.7 253.9-13.03 255.63-13.35 257.03-13.55L257.03-13.55Q257.03-15.45 256.95-16.55 256.88-17.65 256.65-18.32 256.43-19 255.98-19.5L255.98-19.5Q255.38-20.2 254.63-20.55 253.88-20.9 252.98-20.9L252.98-20.9Q251.38-20.9 250.48-19.93 249.58-18.95 249.18-17.63 248.78-16.3 248.68-15.15L248.68-15.15Q247.98-15.15 247.08-15.25 246.18-15.35 245.63-15.55L245.63-15.55Q245.73-16.85 245.7-18.4 245.68-19.95 245.38-21.15L245.38-21.15Q247.48-22.2 249.88-22.78 252.28-23.35 254.33-23.35L254.33-23.35Q256.48-23.35 257.93-22.8 259.38-22.25 260.18-21.35L260.18-21.35Q261.43-20.15 261.88-18.18 262.33-16.2 262.33-12.8L262.33-12.8 262.33-7.65Q262.33-6.2 262.55-5.35 262.78-4.5 263.43-4.13 264.08-3.75 265.38-3.7L265.38-3.7Q265.43-3.1 265.35-2.4 265.28-1.7 265.03-1.1L265.03-1.1Q263.63-1.05 261.98-0.65 260.33-0.25 259.03 0.45ZM252.23-2.8L252.23-2.8Q253.33-2.8 254.43-3.53 255.53-4.25 256.28-5.73 257.03-7.2 257.03-9.6L257.03-9.6 257.03-11.35Q255.73-11.15 254.38-10.85 253.03-10.55 251.9-10 250.78-9.45 250.1-8.55 249.43-7.65 249.43-6.15L249.43-6.15Q249.43-4.4 250.28-3.6 251.13-2.8 252.23-2.8ZM277.98-21L272.68-10.6 272.68-15.8Q272.68-17.1 272.45-17.88 272.23-18.65 271.43-19.05 270.63-19.45 268.98-19.5L268.98-19.5Q268.98-20.1 269.07-20.65 269.18-21.2 269.43-21.65L269.43-21.65Q271.32-21.75 273.48-22.25 275.63-22.75 276.78-23.35L276.78-23.35Q277.28-23.15 277.63-22.65 277.98-22.15 277.98-21L277.98-21ZM293.07-14.95L293.07-6.6Q293.07-4.05 293.75-3.15 294.43-2.25 295.93-2.25L295.93-2.25Q296.07-1.75 296.13-1.2 296.18-0.65 296.18 0.15L296.18 0.15Q295.07 0.05 293.57 0.03 292.07 0 290.53 0L290.53 0Q289.48 0 288.3 0.03 287.13 0.05 286.07 0.08 285.03 0.1 284.23 0.15L284.23 0.15Q284.23-0.6 284.28-1.2 284.32-1.8 284.53-2.25L284.53-2.25Q286.18-2.25 286.98-3.2 287.78-4.15 287.78-6.7L287.78-6.7 287.78-13.65Q287.78-17.1 286.57-18.35 285.38-19.6 283.38-19.6L283.38-19.6Q282.13-19.6 280.88-18.75 279.63-17.9 278.8-16.1 277.98-14.3 277.98-11.35L277.98-11.35 277.98-6.6Q277.98-4.1 278.7-3.18 279.43-2.25 281.23-2.25L281.23-2.25Q281.43-1.75 281.48-1.18 281.53-0.6 281.53 0.15L281.53 0.15Q280.82 0.1 279.78 0.08 278.73 0.05 277.57 0.03 276.43 0 275.32 0L275.32 0Q274.28 0 273.1 0.03 271.93 0.05 270.82 0.08 269.73 0.1 268.98 0.15L268.98 0.15Q268.98-0.6 269.05-1.23 269.13-1.85 269.28-2.25L269.28-2.25Q271.23-2.25 271.95-3.18 272.68-4.1 272.68-6.6L272.68-6.6 272.68-15.8 277.98-21Q277.98-20.4 277.9-19.65 277.82-18.9 277.57-18.05L277.57-18.05Q277.78-18.4 277.98-18.8 278.18-19.2 278.53-19.65L278.53-19.65Q279.43-20.8 281.28-21.95 283.13-23.1 285.68-23.1L285.68-23.1Q287.63-23.1 289.32-22.33 291.03-21.55 292.05-19.78 293.07-18 293.07-14.95L293.07-14.95ZM312.72-23.35L312.72-23.35Q314.07-23.35 315.12-23.13 316.17-22.9 317.37-22.5L317.37-22.5 317.37-18.45Q316.37-19.5 315.27-20.18 314.17-20.85 312.52-20.85L312.52-20.85Q311.47-20.85 310.3-20.45 309.12-20.05 308.02-19.03 306.92-18 306.25-16.13 305.57-14.25 305.57-11.25L305.57-11.25Q305.57-8.3 306.42-6.5 307.27-4.7 308.5-3.83 309.72-2.95 310.87-2.95L310.87-2.95Q312.32-2.95 313.65-3.85 314.97-4.75 315.85-6.78 316.72-8.8 316.72-12.2L316.72-12.2 318.32-6.95Q317.62-5.25 317.07-4.33 316.52-3.4 316.17-3L316.17-3Q315.67-2.25 314.7-1.48 313.72-0.7 312.37-0.13 311.02 0.45 309.37 0.45L309.37 0.45Q306.47 0.45 304.35-0.7 302.22-1.85 301.05-4.28 299.87-6.7 299.87-10.5L299.87-10.5Q299.87-14.1 301.47-17 303.07-19.9 305.97-21.63 308.87-23.35 312.72-23.35ZM317.87-6.8L321.97-7.25Q321.97-6 322.17-5.2 322.37-4.4 323.05-4.05 323.72-3.7 325.02-3.7L325.02-3.7Q325.07-3.1 325-2.4 324.92-1.7 324.67-1.1L324.67-1.1Q323.27-1.05 321.52-0.65 319.77-0.25 318.47 0.45L318.47 0.45Q317.87 0.2 317.5-0.33 317.12-0.85 317.12-2.45L317.12-2.45Q317.12-3.45 317.32-4.28 317.52-5.1 317.87-6.8L317.87-6.8ZM316.72-28.7L321.97-28.7 321.97-6.4 316.72-6.4 316.72-28.7ZM320.77-35.85L320.77-35.85Q321.27-35.65 321.62-35.15 321.97-34.65 321.97-33.65L321.97-33.65 321.97-26.9 316.72-26.9 316.72-28.45Q316.72-29.65 316.47-30.43 316.22-31.2 315.42-31.6 314.62-32 312.97-32L312.97-32Q312.97-32.6 313.07-33.15 313.17-33.7 313.42-34.15L313.42-34.15Q314.47-34.15 315.95-34.4 317.42-34.65 318.8-35.05 320.17-35.45 320.77-35.85ZM344.27 0.45L344.27 0.45Q343.67 0.2 343.32-0.48 342.97-1.15 342.97-2.5L342.97-2.5Q342.97-3 343.05-3.68 343.12-4.35 343.27-4.95L343.27-4.95 343.42-4.95Q343.22-4 342.65-3.05 342.07-2.1 341.22-1.35L341.22-1.35Q340.32-0.6 338.97-0.13 337.62 0.35 335.77 0.35L335.77 0.35Q332.57 0.35 330.85-1.07 329.12-2.5 329.12-5.05L329.12-5.05Q329.12-7 330.05-8.38 330.97-9.75 332.45-10.68 333.92-11.6 335.67-12.15 337.42-12.7 339.15-13.03 340.87-13.35 342.27-13.55L342.27-13.55Q342.27-15.45 342.2-16.55 342.12-17.65 341.9-18.32 341.67-19 341.22-19.5L341.22-19.5Q340.62-20.2 339.87-20.55 339.12-20.9 338.22-20.9L338.22-20.9Q336.62-20.9 335.72-19.93 334.82-18.95 334.42-17.63 334.02-16.3 333.92-15.15L333.92-15.15Q333.22-15.15 332.32-15.25 331.42-15.35 330.87-15.55L330.87-15.55Q330.97-16.85 330.95-18.4 330.92-19.95 330.62-21.15L330.62-21.15Q332.72-22.2 335.12-22.78 337.52-23.35 339.57-23.35L339.57-23.35Q341.72-23.35 343.17-22.8 344.62-22.25 345.42-21.35L345.42-21.35Q346.67-20.15 347.12-18.18 347.57-16.2 347.57-12.8L347.57-12.8 347.57-7.65Q347.57-6.2 347.8-5.35 348.02-4.5 348.67-4.13 349.32-3.75 350.62-3.7L350.62-3.7Q350.67-3.1 350.6-2.4 350.52-1.7 350.27-1.1L350.27-1.1Q348.87-1.05 347.22-0.65 345.57-0.25 344.27 0.45ZM337.47-2.8L337.47-2.8Q338.57-2.8 339.67-3.53 340.77-4.25 341.52-5.73 342.27-7.2 342.27-9.6L342.27-9.6 342.27-11.35Q340.97-11.15 339.62-10.85 338.27-10.55 337.15-10 336.02-9.45 335.35-8.55 334.67-7.65 334.67-6.15L334.67-6.15Q334.67-4.4 335.52-3.6 336.37-2.8 337.47-2.8ZM363.22-11.35L363.22-7.75Q363.22-5.6 363.67-4.45 364.12-3.3 365.14-2.85 366.17-2.4 367.82-2.25L367.82-2.25Q367.97-1.8 368.04-1.2 368.12-0.6 368.12 0.15L368.12 0.15Q367.32 0.1 366.22 0.08 365.12 0.05 363.87 0.03 362.62 0 361.37 0L361.37 0Q359.47 0 357.42 0.03 355.37 0.05 354.22 0.15L354.22 0.15Q354.22-0.65 354.27-1.25 354.32-1.85 354.52-2.25L354.52-2.25Q355.87-2.35 356.59-2.75 357.32-3.15 357.62-4.1 357.92-5.05 357.92-6.8L357.92-6.8 357.92-11.35 363.22-11.35ZM362.32-15.3L363.22-14.65 363.22-10.6 357.92-10.6 357.92-16.15 363.22-21Q363.22-19.45 362.92-18.1 362.62-16.75 362.32-15.3L362.32-15.3ZM363.22-11.9L362.12-15Q362.62-16.35 362.94-17.32 363.27-18.3 363.62-18.9L363.62-18.9Q364.72-20.65 366.24-21.8 367.77-22.95 369.77-22.95L369.77-22.95Q371.67-22.95 373.22-21.75L373.22-21.75Q373.12-20.9 373.02-19.78 372.92-18.65 372.89-17.53 372.87-16.4 372.87-15.45L372.87-15.45Q372.32-15.25 371.42-15.1 370.52-14.95 369.62-14.95L369.62-14.95Q369.52-17.2 368.89-17.98 368.27-18.75 367.27-18.75L367.27-18.75Q366.47-18.75 365.49-17.8 364.52-16.85 363.87-15.3 363.22-13.75 363.22-11.9L363.22-11.9ZM363.22-21L357.92-10.6 357.92-15.8Q357.92-17.1 357.69-17.88 357.47-18.65 356.67-19.05 355.87-19.45 354.22-19.5L354.22-19.5Q354.22-20.1 354.32-20.65 354.42-21.2 354.67-21.65L354.67-21.65Q356.57-21.75 358.72-22.25 360.87-22.75 362.02-23.35L362.02-23.35Q362.52-23.15 362.87-22.65 363.22-22.15 363.22-21L363.22-21ZM376.02 0.15L376.02 0.15Q376.02-0.45 376.09-1.1 376.17-1.75 376.32-2.25L376.32-2.25Q378.32-2.3 379.02-3.2 379.72-4.1 379.72-6.6L379.72-6.6 379.72-15.95Q379.72-17.15 379.49-17.93 379.27-18.7 378.47-19.1 377.67-19.5 375.97-19.5L375.97-19.5Q375.97-20.1 376.09-20.65 376.22-21.2 376.47-21.65L376.47-21.65Q377.47-21.65 378.97-21.9 380.47-22.15 381.82-22.55 383.17-22.95 383.82-23.35L383.82-23.35Q384.32-23.15 384.67-22.65 385.02-22.15 385.02-21.15L385.02-21.15 385.02-6.6Q385.02-4.1 385.69-3.2 386.37-2.3 388.02-2.25L388.02-2.25Q388.17-1.75 388.22-1.05 388.27-0.35 388.27 0.15L388.27 0.15Q387.47 0.1 386.47 0.08 385.47 0.05 384.37 0.03 383.27 0 382.22 0L382.22 0Q381.12 0 379.99 0.03 378.87 0.05 377.84 0.08 376.82 0.1 376.02 0.15ZM381.92-28.5L381.92-28.5Q380.47-28.5 379.54-29.38 378.62-30.25 378.62-31.55L378.62-31.55Q378.62-33.05 379.62-33.95 380.62-34.85 381.97-34.85L381.97-34.85Q383.52-34.85 384.42-33.95 385.32-33.05 385.32-31.6L385.32-31.6Q385.32-30.35 384.34-29.43 383.37-28.5 381.92-28.5Z" fill="#ffffff" data-fill-palette-color="primary"></path></g></svg></g></svg></g></svg></g></svg></g><g><svg viewBox="0 0 120.75402003405217 120.75402003405217" height="120.75402003405217" width="120.75402003405217"><g><svg></svg></g><g id="icon-0"><svg viewBox="0 0 120.75402003405217 120.75402003405217" height="120.75402003405217" width="120.75402003405217"><g><path d="M0 60.377c0-33.345 27.032-60.377 60.377-60.377 33.345 0 60.377 27.032 60.377 60.377 0 33.345-27.032 60.377-60.377 60.377-33.345 0-60.377-27.032-60.377-60.377zM60.377 116.282c30.875 0 55.905-25.029 55.905-55.905 0-30.875-25.029-55.905-55.905-55.905-30.875 0-55.905 25.029-55.905 55.905 0 30.875 25.029 55.905 55.905 55.905z" data-fill-palette-color="accent" fill="#ffffff" stroke="transparent"></path></g><g transform="matrix(1,0,0,1,25.436945448032525,34.4267127698745)"><svg viewBox="0 0 69.88012913798713 51.900594494303185" height="51.900594494303185" width="69.88012913798713"><g><svg xmlns="http://www.w3.org/2000/svg" xmlns:xlink="http://www.w3.org/1999/xlink" version="1.1" x="0" y="0" viewBox="7.5 18.435 85.001 63.131" enable-background="new 0 0 100 100" xml:space="preserve" height="51.900594494303185" width="69.88012913798713" class="icon-cg-0" data-fill-palette-color="accent" id="cg-0"><g fill="#ffffff" data-fill-palette-color="accent"><path d="M89.405 18.435H10.595c-1.706 0-3.095 1.389-3.095 3.095v56.941c0 1.706 1.389 3.095 3.095 3.095h78.811c1.707 0 3.095-1.389 3.095-3.095V77.14 32.027 21.529C92.5 19.823 91.112 18.435 89.405 18.435zM10.595 19.673h78.811c1.023 0 1.857 0.833 1.857 1.856v9.075c-0.068-0.01-0.136-0.021-0.207-0.021H8.951c-0.073 0-0.143 0.011-0.213 0.021v-9.076C8.738 20.506 9.571 19.673 10.595 19.673zM91.263 77.14c0 0.114-0.093 0.206-0.207 0.206H8.951c-0.113 0-0.206-0.092-0.206-0.206V32.027c0-0.113 0.093-0.206 0.206-0.206h82.104c0.114 0 0.207 0.093 0.207 0.206V77.14zM89.405 80.327H10.595c-0.992 0-1.798-0.784-1.848-1.764 0.067 0.01 0.135 0.021 0.204 0.021h82.104c0.068 0 0.133-0.011 0.197-0.02C91.202 79.544 90.396 80.327 89.405 80.327z" fill="#ffffff" data-fill-palette-color="accent"></path><path d="M28.178 27.787c1.45 0 2.63-1.18 2.63-2.63 0-1.451-1.18-2.631-2.63-2.631s-2.631 1.18-2.631 2.631C25.547 26.607 26.728 27.787 28.178 27.787zM28.178 23.765c0.768 0 1.393 0.624 1.393 1.393 0 0.768-0.625 1.393-1.393 1.393-0.769 0-1.393-0.625-1.393-1.393C26.785 24.389 27.409 23.765 28.178 23.765z" fill="#ffffff" data-fill-palette-color="accent"></path><path d="M21.458 27.787c1.451 0 2.631-1.18 2.631-2.63 0-1.451-1.18-2.631-2.631-2.631-1.45 0-2.63 1.18-2.63 2.631C18.828 26.607 20.008 27.787 21.458 27.787zM21.458 23.765c0.769 0 1.393 0.624 1.393 1.393 0 0.768-0.624 1.393-1.393 1.393-0.768 0-1.393-0.625-1.393-1.393C20.065 24.389 20.69 23.765 21.458 23.765z" fill="#ffffff" data-fill-palette-color="accent"></path><path d="M14.738 27.787c1.451 0 2.631-1.18 2.631-2.63 0-1.451-1.18-2.631-2.631-2.631-1.45 0-2.63 1.18-2.63 2.631C12.108 26.607 13.288 27.787 14.738 27.787zM14.738 23.765c0.769 0 1.393 0.624 1.393 1.393 0 0.768-0.624 1.393-1.393 1.393-0.768 0-1.393-0.625-1.393-1.393C13.346 24.389 13.971 23.765 14.738 23.765z" fill="#ffffff" data-fill-palette-color="accent"></path></g><path d="M26.598 65.915c-0.624 0-1.395-0.429-2.289-1.276-1.605-1.519-2.16-2.371-1.2-3.405l8.79-8.811-8.774-8.782c-0.676-0.676-0.57-1.195-0.401-1.57 0.242-0.544 0.814-1.117 1.479-1.781 0.829-0.829 1.542-1.542 2.241-1.542 0.342 0 0.679 0.172 1.033 0.526l11.769 11.755c0.311 0.254 0.521 0.659 0.564 1.134 0.048 0.537-0.134 1.152-0.452 1.533L27.53 65.514C27.243 65.787 26.941 65.915 26.598 65.915zM23.846 42.57c-0.009 0 0.027 0.068 0.154 0.194l9.211 9.221c0.241 0.242 0.241 0.633 0 0.875L24 62.093c-0.093 0.1-0.125 0.147-0.133 0.166 0.012 0.047 0.125 0.377 1.292 1.48 0.979 0.927 1.42 0.938 1.438 0.938v0.619l0.01-0.62c-0.001 0.001-0.001 0.001-0.001 0.001-0.003 0 0.02-0.012 0.061-0.05l11.777-11.767c0.061-0.077 0.151-0.357 0.131-0.589-0.013-0.145-0.063-0.246-0.162-0.328L26.601 40.148c-0.144-0.143-0.215-0.171-0.215-0.171-0.182 0.06-0.886 0.764-1.307 1.184-0.531 0.532-1.077 1.078-1.227 1.413C23.85 42.571 23.848 42.57 23.846 42.57z" fill="#ffffff" data-fill-palette-color="accent"></path><path d="M55.834 71.436H40.498c-1.594 0-1.92-1.234-1.92-3.088s0.326-3.088 1.92-3.088h15.336c1.503 0 1.787 1.085 1.787 3.088C57.621 70.396 57.346 71.436 55.834 71.436zM40.498 66.497c-0.366 0-0.683 0-0.683 1.851s0.316 1.851 0.683 1.851h15.336c0.354 0 0.55 0 0.55-1.851s-0.219-1.851-0.55-1.851H40.498z" fill="#ffffff" data-fill-palette-color="accent"></path></svg></g></svg></g></svg></g></svg></g></svg></g></svg></g><defs></defs></svg><rect width="395.52" height="88.49642524986265" fill="none" stroke="none" visibility="hidden"></rect></g></svg></g></svg>